<?xml version="1.0" encoding="UTF-8"?>
<svg width="512px" height="512px" viewBox="0 0 512 512" version="1.1" xmlns="http://www.w3.org/2000/svg" xmlns:xlink="http://www.w3.org/1999/xlink">
    <!-- Generator: Sketch 55.2 (78181) - https://sketchapp.com -->
    <title>Fashion</title>
    <desc>Created with Sketch.</desc>
    <g id="Fashion" stroke="none" stroke-width="1" fill="none" fill-rule="evenodd">
        <g id="fashion-logo" transform="translate(0.000000, 8.000000)" fill-rule="nonzero">
            <rect id="Rectangle" fill="#546E7A" x="0.4" y="0" width="512" height="496"></rect>
            <path d="M60,96 L60,393.261818 C60,426.80659 87.2448664,454 120.853112,454 C128.222486,454 135.530578,452.66396 142.421539,450.056934 L339.222872,375.601997 C370.230283,363.871107 385.838996,329.272342 374.085908,298.323493 C369.962437,287.465352 362.767274,278.036766 353.375193,271.184046 L252.82727,197.821516 L219.309407,243.586478 L319.85733,316.949008 C320.36501,317.319426 320.753938,317.829079 320.976828,318.416005 C321.61213,320.088916 320.768416,321.95912 319.09234,322.593222 L122.291007,397.048159 C121.83161,397.221961 121.344404,397.31103 120.853112,397.31103 C118.612563,397.31103 116.796238,395.498136 116.796238,393.261818 L116.796238,96 L60,96 Z" id="Path-4" fill="#FFFFFF"></path>
        </g>
    </g>
</svg>